<?xml version="1.0" encoding="utf-8"?>
<!-- Svg Vector Icons : http://www.onlinewebfonts.com/icon -->
<!DOCTYPE svg PUBLIC "-//W3C//DTD SVG 1.1//EN" "http://www.w3.org/Graphics/SVG/1.1/DTD/svg11.dtd">
<svg version="1.1" xmlns="http://www.w3.org/2000/svg" xmlns:xlink="http://www.w3.org/1999/xlink" x="0px" y="0px" viewBox="0 0 1000 1000" enable-background="new 0 0 1000 1000" xml:space="preserve">
<metadata> Svg Vector Icons : http://www.onlinewebfonts.com/icon </metadata>
<g><path fill="currentColor" d="M553.3,715.2c-78.4,36.5-151.4,36.1-200.4,32.6c-58.4-4.2-105.4-20.2-126.1-34.2c-12.7-8.6-30-5.3-38.7,7.4s-5.3,30,7.4,38.7c33.2,22.5,91.9,39.2,153.3,43.6c10.4,0.7,21.8,1.2,34.1,1.2c53.4,0,121.2-5.1,193.7-38.8c13.9-6.5,20-23,13.5-37C583.8,714.8,567.2,708.8,553.3,715.2L553.3,715.2z M862.7,674c2.7-241.8,27.5-698.8-435.4-661.9C-29.8,48.9,91.4,531.7,84.6,693.5C78.5,779,50.1,883.6,10,990h123.6c12.7-45.1,22-89.7,26.1-132.2c7.4,5.2,15.4,10.2,23.9,15c13.8,8.2,25.7,19,38.3,30.5c29.4,26.8,62.8,57.2,128,61c4.4,0.3,8.8,0.4,13.1,0.4c65.9,0,111-28.9,147.3-52c17.4-11.1,32.4-20.7,46.5-25.3c40.1-12.6,75.2-32.8,101.4-58.6c4.1-4,7.9-8.2,11.4-12.4C684,869.8,704,929.9,726.2,990H990C926.7,892.2,861.3,796.3,862.7,674L862.7,674z M128.8,542.5C128.8,542.4,128.8,542.4,128.8,542.5c-4.5-78.9,33.2-145.4,84.3-148.3s96.2,58.6,100.8,137.5c0,0,0,0,0,0c0.2,4.3,0.4,8.5,0.4,12.6c-16.2,4.1-30.8,10-43.9,16.9c-0.1-0.6-0.1-1.2-0.1-1.7v0c-4.4-44.8-28.3-78.6-53.4-75.6c-25.1,3.1-42,41.9-37.6,86.7v0c1.9,19.5,7.5,37,15.3,50.2c-1.9,1.5-7.4,5.6-13.8,10.2c-4.8,3.5-10.5,7.7-17.5,12.9C144.1,618.9,131.1,583,128.8,542.5L128.8,542.5z M646.7,737.5c-1.8,41.7-56.4,80.9-106.8,96.7l-0.3,0.1c-21,6.8-39.7,18.8-59.4,31.4C446.9,887,412.6,909,362.9,909c-3.3,0-6.6-0.1-9.9-0.3c-45.5-2.7-66.7-22-93.7-46.6c-14.2-12.9-28.9-26.3-47.8-37.4l-0.4-0.2c-40.9-23.1-66.2-51.8-67.9-76.8c-0.8-12.4,4.7-23.2,16.4-32c25.5-19.1,42.6-31.6,53.9-39.9c12.5-9.2,16.3-11.9,19.1-14.6c2-1.9,4.2-4,6.5-6.3c23.4-22.8,62.5-60.8,122.6-60.8c36.7,0,77.4,14.2,120.8,42c20.4,13.3,38.2,19.4,60.7,27.2c15.5,5.3,33,11.4,56.4,21.4l0.4,0.2C622,694,647.9,710.4,646.7,737.5L646.7,737.5z M634.6,639.5c-4.2-2.1-8.6-4.1-13.2-6c-21.1-9.1-38.1-15.2-52.2-20.1c7.8-15.2,12.6-34.2,13-54.8v0c1.1-50.1-24.2-90.8-56.5-90.9c-32.3-0.1-59.3,40.5-60.4,90.6v0c0,1.6,0,3.3,0,4.9c-19.9-9.1-39.4-15.8-58.5-19.9c-0.1-1.9-0.2-3.8-0.2-5.7c0,0,0,0,0,0c-1.9-91.3,54.2-166.9,125.1-168.8c71-1.9,130,70.5,131.8,161.8c0,0,0,0,0,0.1C664.5,572,653.4,610.1,634.6,639.5L634.6,639.5z"/></g>
</svg>